<?xml version="1.0" encoding="utf-8"?>
<!-- Generator: Adobe Illustrator 19.2.0, SVG Export Plug-In . SVG Version: 6.00 Build 0)  -->
<svg version="1.1" id="Layer_1" xmlns="http://www.w3.org/2000/svg" xmlns:xlink="http://www.w3.org/1999/xlink" x="0px" y="0px"
	 viewBox="0 0 194.8 47.2" style="enable-background:new 0 0 194.8 47.2;" xml:space="preserve">
<g>
	<path style="fill:#417BA4;" d="M107.5,24.6c0-6.8,5.1-11.4,11.6-11.4c3.9,0,6.5,1.8,8.2,4c0.4,0.5,0.2,1.2-0.4,1.5l-1.5,0.8
		c-0.4,0.2-0.9,0.1-1.2-0.3c-1.2-1.5-3-2.5-5.1-2.5c-4.4,0-7.6,3.4-7.6,8c0,4.6,3.3,8,7.6,8c2.1,0,4-1,5.1-2.5
		c0.3-0.4,0.8-0.5,1.2-0.3l1.5,0.8c0.6,0.3,0.7,1,0.3,1.5c-1.7,2.2-4.3,4-8.2,4C112.5,36,107.5,31.4,107.5,24.6z"/>
	<path style="fill:#417BA4;" d="M146.5,24.6c0-5.3,3-9.5,7.6-10.9c0.2-0.1,0.4-0.1,0.7-0.2c1-0.2,2-0.4,3-0.4
		c6.6,0,11.3,4.8,11.3,11.4S164.5,36,157.8,36C151.2,36,146.5,31.2,146.5,24.6z M165.2,24.6c0-4.6-2.9-8-7.3-8c-4.5,0-7.3,3.4-7.3,8
		c0,4.5,2.9,8,7.3,8C162.3,32.6,165.2,29.1,165.2,24.6z"/>
	<path style="fill:#417BA4;" d="M99,13.5h-3.5c-0.4,0-0.8,0.3-0.9,0.6l-7.9,20.1c-0.3,0.7,0.2,1.4,0.9,1.4h2.3
		c0.4,0,0.8-0.3,0.9-0.6l1.4-3.6l1.1-3.4l1.1-3l2.8-7.5l4,10.5h-4c-0.4,0-0.8,0.3-1,0.7l-0.7,2.1c-0.1,0.3,0.1,0.7,0.5,0.7h6.2
		l1.4,3.6c0.1,0.4,0.5,0.6,0.9,0.6h2.3c0.7,0,1.2-0.7,0.9-1.4L100,14.2C99.8,13.8,99.5,13.5,99,13.5z"/>
	<path style="fill:#417BA4;" d="M86.6,22.7h-7.3v-5.7h10.3c0.4,0,0.8-0.3,0.9-0.6l0.6-1.4c0.3-0.7-0.2-1.4-0.9-1.4H76.4
		c-0.6,0-1,0.4-1,1v20.1c0,0.6,0.4,1,1,1h1.9c0.6,0,1-0.4,1-1v-8.6H86c0.4,0,0.8-0.3,0.9-0.6l0.6-1.4C87.8,23.4,87.3,22.7,86.6,22.7
		z"/>
	<path style="fill:#417BA4;" d="M129.6,13.5c-0.8,0-1.3,1-0.8,1.6l0.9,1.4c0.2,0.3,0.5,0.4,0.8,0.4h5.6v18.7h3.9V16.9h5.6
		c0.3,0,0.6-0.2,0.8-0.4c0.3-0.5,0.6-0.9,1-1.3c0.6-0.6,0.1-1.7-0.7-1.7L129.6,13.5z"/>
	<g>
		<path style="fill:#417BA4;" d="M189.1,14.1l-4.5,10.8c-0.1,0.2-0.1,0.5,0,0.8L186,29c0.2,0.4,0.8,0.4,0.9,0l4.1-9.8v15.4
			c0,0.6,0.4,1,1,1h1.9c0.6,0,1-0.4,1-1V14.5c0-0.6-0.4-1-1-1H190C189.6,13.5,189.3,13.7,189.1,14.1z"/>
		<path style="fill:#417BA4;" d="M183.9,32.9c0.7,0,1.2-0.7,0.9-1.4l-1.5-3.5l0,0l-5.7-13.9c-0.2-0.4-0.5-0.6-0.9-0.6h-3.8
			c-0.6,0-1,0.4-1,1v20.1c0,0.6,0.4,1,1,1h1.9c0.6,0,1-0.4,1-1V19.2l5.4,13.1c0.2,0.4,0.5,0.6,0.9,0.6H183.9z"/>
	</g>
</g>
<g>
	<g style="enable-background:new    ;">
		<g>
			<g>
				<path style="fill:#E8B521;" d="M18.7,41.3c-0.5,0.7-1,1.4-1.2,2C17.8,42.7,18.2,42,18.7,41.3"/>
			</g>
		</g>
	</g>
	<path style="fill:#D37D41;" d="M21.9,0.1c0.6,0,1.4-0.1,2-0.1c2.1,0,3.1,0.8,2.7,2.4c-0.5,1.9-3.2,4.6-6.7,7
		c-0.7,0.3-1.4-0.6-1.2-1c0-0.1,0.1-0.1,0.1-0.1c3.1-2.1,5.4-4.4,5.9-6.1c0.4-1.6-0.9-2.3-3.2-2.1L21.9,0.1"/>
	<path style="fill:#E8B521;" d="M33.9,2.4c1.2,0.6,1.7,1.6,1.3,3.1c-1.2,4.5-10,11.4-19.6,15.5c-1.8,0.8-3.6,1.4-5.2,1.9
		c-0.9,0.1-1-1.1-0.6-1.7c0.1-0.2,0.2-0.2,0.3-0.3c1.5-0.4,3.1-1,4.8-1.7C24,15.3,32.3,8.7,33.4,4.5c0.4-1.5-0.2-2.5-1.5-3
		C32.5,1.8,33.3,2.1,33.9,2.4"/>
	<path style="fill:#E8B521;" d="M44.3,12.3l0.3,0.5c0.3,0.8,0.3,0.8,0.3,1.2c0,0,0,0.1,0,0.1c-0.3-0.1-0.9-1.3-1-1.8
		c0-0.6-0.1-1-0.4-1.4L44.3,12.3"/>
	<path style="fill:#417BA4;" d="M46.4,17.6c0.1,0.5,0.1,1.1-0.1,1.8c-1.2,4.4-8.7,10.9-17.8,15.6c-1,0.4-1.6-0.3-1.4-1
		c0.1-0.3,0.3-0.5,0.5-0.6c9.2-4.8,16.9-11.4,18.1-15.9c0.2-0.8,0.2-1.5,0-2.1C46,16.2,46.3,17,46.4,17.6"/>
	<path style="fill:#D37D41;" d="M47.1,21.8l0,0.8c0,0.4,0,0.7-0.1,1.2c-0.7,2.7-4,6.2-8.5,9.6c-0.7,0.5-1.1-0.2-1-0.7
		c0.1-0.4,0.4-0.7,0.5-0.8c4.7-3.5,8.1-7.1,8.8-9.9c0.1-0.5,0.2-1,0.1-1.5L47.1,21.8"/>
	<path style="fill:#417BA4;" d="M13.9,39.9c-0.1-0.2-0.6-0.8-1.4-0.8c-3.8,0.6-6.6,0.2-7.7-1.2c0,0,0,0-0.1-0.1c0,0,0,0,0,0
		c0.2,0.3,0.4,0.6,0.7,0.8C5.8,39,6,39.3,6.2,39.6c1.2,1.2,3.8,1.6,7.4,1C14.1,40.4,14,40.1,13.9,39.9z"/>
	<path style="fill:#D37D41;" d="M24.9,40.3c0.1,0.1,0.1,0.5-0.5,0.8c-6.9,2.7-12.3,3.3-14.5,1.8c-0.5-0.4-1.2-0.9-1.7-1.3
		c2.1,1.8,7.8,1.2,15.2-1.7C24.5,39.6,24.9,40.3,24.9,40.3"/>
	<path style="fill:#417BA4;" d="M47.1,25.8c-0.1,0.6-0.2,1.3-0.2,1.8c0,0.1,0,0.2-0.1,0.3c-1.2,4.3-9.7,11-19,15
		c-6.1,2.6-11,3.3-13.4,2.4c-0.6-0.3-1.4-0.6-1.9-0.9c8.2,3.4,33.5-10.4,34.7-18.9L47.1,25.8"/>
	<path style="fill:#E8B521;" d="M45.4,32.6c-3.5,7.2-19.7,15.2-26.1,14.2c-0.7-0.1-1.6-0.3-2.2-0.5c2.3,0.7,6.6-0.1,11.8-2.3
		c8.4-3.6,16.1-9.6,17.3-13.5C46,31.1,45.7,32,45.4,32.6"/>
	<path style="fill:#417BA4;" d="M40.2,39.8c0,0.1-0.2,0.4-0.6,0.7c-2.2,1.8-5.2,3.6-8.3,4.9c-2.6,1.1-4.9,1.7-6.6,1.8
		c-0.7,0-1.7,0-2.5,0c2,0.1,4.9-0.6,8.4-2c3.5-1.5,6.9-3.5,9.4-5.6c0.1,0,0.1-0.1,0.2-0.1c0,0,0,0.1,0.1,0.1
		C40.3,39.6,40.3,39.7,40.2,39.8"/>
	<path style="fill:#E8B521;" d="M1.7,21.3c-0.4-0.2-0.7-0.4-0.9-0.7c-0.3-0.4-0.4-0.9-0.4-1.5c0-0.2,0.1-0.4,0.1-0.6
		c0,0.1,0,0.1,0,0.2l-0.2,0.8l-0.2,1.3l0,0c0,0.2,0,0.3,0,0.5c0,0.1,0,0.2,0,0.2c0,0,0,0.1,0,0.1c0,0.2,0.1,0.4,0.2,0.5
		c0,0,0,0.1,0,0.1c0,0,0,0.1,0.1,0.1c0,0.1,0.1,0.1,0.1,0.2c0,0,0,0,0,0c0.2,0.3,0.5,0.6,0.9,0.8c0.2,0,0.3-0.3,0.4-0.6
		C1.8,22.6,2,21.6,1.7,21.3z"/>
	<path style="fill:#D37D41;" d="M38.2,5l-0.9-0.7l-0.8-0.5c0.4,0.3,1.2,0.9,1.1,2.2C37.2,13.8,7.1,32.2,0.4,25.1
		C0.2,24.7,0,24.2,0,23.6c0,0.6,0.1,1.4,0.1,2c0,0,0,0,0,0c0,0,0,0.1,0,0.1c0,0,0,0,0,0c0,0,0,0.1,0,0.1c0,0,0,0,0,0
		c0,0.1,0,0.1,0,0.2c0,0,0-0.1,0-0.1c0,0.1,0.1,0.3,0.1,0.4c0,0,0,0.1,0,0.1c0,0,0,0,0,0.1c0,0,0,0,0,0c0,0.1,0.1,0.1,0.1,0.2
		c0-0.1-0.1-0.1-0.1-0.2c0.1,0.2,0.2,0.3,0.3,0.5c0,0,0,0,0,0c1.7,2.4,8.2,1.9,16.7-1.7C27.9,20.7,37.6,13,39,8
		C39.3,6.7,39,5.7,38.2,5z"/>
	<path style="fill:#417BA4;" d="M41.8,8.5c-0.4-0.5-1-1.1-1.5-1.6c0.7,0.7,0.9,1.7,0.6,2.9C39.5,15,29.4,23,18.3,27.7
		C9.6,31.4,2.8,32,1,29.6c0,0,0,0,0,0c-0.2-0.3-0.3-0.6-0.4-0.9c0.1,0.6,0.4,1.5,0.6,2.1c0.1,0.4,0.2,0.5,0.3,0.7l0,0c0,0,0,0,0,0
		l0,0l0,0c0,0,0,0,0,0l0,0c0,0,0,0,0,0c1.9,2.5,8.7,1.9,17.6-1.9c11.3-4.8,21.7-13,23.1-18.2C42.5,10.1,42.3,9.2,41.8,8.5z"/>
	<path style="fill:#417BA4;" d="M17.5,0.8C17.1,0.9,17,0.9,16.7,1c-0.3,0.1-0.4,0.1-0.8,0.2c-0.3,0.1-0.5,0.2-0.8,0.3
		c-0.2,0.1-0.4,0.2-0.8,0.3C14.1,2,14,2,13.8,2.1c-0.2,0.1-0.3,0.2-0.6,0.3c-0.2,0.1-0.3,0.2-0.5,0.3c-0.2,0.1-0.3,0.2-0.5,0.3
		c-0.2,0.1-0.3,0.2-0.5,0.3c-0.2,0.1-0.3,0.2-0.5,0.3c-0.2,0.1-0.3,0.2-0.5,0.3c-0.2,0.1-0.3,0.2-0.5,0.4C9.8,4.4,9.7,4.5,9.5,4.7
		C9.3,4.8,9.2,4.9,9,5.1C8.7,5.3,8.6,5.4,8.4,5.6C8.1,5.8,8,5.9,7.8,6.1C7.3,6.6,6.8,7,6.5,7.5C6.1,7.9,5.9,8.2,5.8,8.6
		C5.7,8.7,5.6,8.9,5.6,9c0,0.1,0,0.2-0.1,0.3c0,0.3,0,0.6,0.2,0.8c0.7,1,3.5,0.8,7-0.7c1.1-0.5,2.2-1,3.3-1.6c0.2-0.2,0.1-0.5,0-0.6
		c-0.1-0.1-0.4-0.5-0.8-0.4c-0.8,0.5-1.7,0.9-2.6,1.3c-2.8,1.2-5,1.4-5.6,0.6C6.9,8.3,6.9,8,7,7.7c0.1-0.4,0.3-0.8,0.7-1.2
		c0.4-0.5,1.1-1.1,1.8-1.7c1.5-1.1,3.4-2.2,5.3-3c0.3-0.1,0.6-0.2,0.9-0.3c2.8-0.9,4.6-0.6,4.3,0.8c-0.1,0.4-0.4,0.9-0.9,1.5
		c0.2,0.2,1.3,0.5,1.8,0.2c0.6-0.7,1-1.3,1.1-1.8C22.3,0.4,20.5,0,17.5,0.8z"/>
	<path style="fill:#D37D41;" d="M10.9,12.1c-3.4,1.1-5.9,1.1-6.7,0.1c-0.2-0.3-0.3-0.8-0.2-1.3c0.1-0.4,0.3-0.8,0.5-1.1
		c0.2-0.3,0.4-0.5,0.6-0.8l0,0L4.8,9.4c-0.2,0.2-0.4,0.5-0.6,0.8C4,10.4,3.8,10.7,3.7,11c-0.1,0.2-0.3,0.6-0.5,0.8
		C3.1,12,3.1,12.2,3,12.4c0,0.1-0.1,0.3-0.1,0.4c0,0.3,0,0.5,0,0.6c0,0,0,0,0,0c0,0.2,0.1,0.3,0.2,0.5c0,0,0,0,0,0
		c0.8,0.9,2.4,0.9,3.7,0.8c4.3-0.5,4.4-1.3,4.4-1.8C11.3,12.9,11.3,12,10.9,12.1z"/>
	<path style="fill:#417BA4;" d="M29.6,0.8c-0.2-0.1-0.5-0.1-0.9-0.2c-0.6-0.1-0.6-0.1-0.8-0.1C29,0.9,29.4,1.7,29.1,3
		c-0.9,3.5-7.8,8.9-15.3,12.1c-5.9,2.5-10.5,2.9-11.7,1.2c-0.3-0.4-0.4-1-0.2-1.8C2,14.2,2.1,14,2.2,13.7c-0.3,0.6-0.6,1.5-0.8,2.1
		c0,0.1-0.1,0.3-0.1,0.4c0,0.2-0.1,0.3-0.1,0.5c-0.1,0.6,0,1.1,0.3,1.5c1.3,1.8,6.3,1.4,12.8-1.3C22.5,13.3,30,7.4,31,3.5
		C31.4,2.2,30.8,1.2,29.6,0.8z"/>
	<path style="fill:#E8B521;" d="M3.3,35.7c0,0-0.1-0.1-0.4-0.7c0,0,0,0,0,0c0,0,0,0,0-0.1c-0.2-0.3-0.3-0.7-0.5-1
		c1.9,2.5,8.9,2,17.9-1.9c6.8-2.9,13.3-7,17.7-10.9c0.8-0.4,1.1,0.2,1.2,0.5c0.2,0.6,0,1-0.2,1.3c-4.4,4-10.9,8-17.7,10.9
		c-8.5,3.6-15.2,4.3-17.5,2.3C3.8,36.1,3.5,35.8,3.3,35.7"/>
	<path style="fill:#E8B521;" d="M3.3,35.7"/>
</g>
</svg>
